<svg width="55" height="54" viewBox="0 0 55 54" fill="none" xmlns="http://www.w3.org/2000/svg">
<path d="M27.7413 32.0255L12.3459 50.0993C11.8563 50.6691 11.2542 51.1318 10.5775 51.4582C9.90077 51.7846 9.16392 51.9677 8.41312 51.9961C7.66232 52.0245 6.91374 51.8975 6.21429 51.6232C5.51483 51.3488 4.87957 50.933 4.34829 50.4017C3.81701 49.8704 3.40117 49.2352 3.12682 48.5357C2.85246 47.8363 2.7255 47.0877 2.7539 46.3369C2.78229 45.5861 2.96542 44.8492 3.29182 44.1725C3.61822 43.4958 4.08086 42.8937 4.65074 42.4041L22.7245 27.0087M52.75 26.7711L37.5072 42.0139M27.9789 2L12.7361 17.2428M26.0732 3.90566L14.6417 15.3371C14.6417 15.3371 20.3587 22.9598 26.0732 28.6768C31.7902 34.3913 39.4129 40.1083 39.4129 40.1083L50.8443 28.6768C50.8443 28.6768 45.1273 21.0541 39.4129 15.3371C33.6959 9.62266 26.0732 3.90566 26.0732 3.90566Z" stroke="#F6B40E" stroke-width="4" stroke-linecap="round" stroke-linejoin="round"/>
</svg>
