<svg width="49" height="64" viewBox="0 0 49 64" fill="none" xmlns="http://www.w3.org/2000/svg">
<path d="M12.6719 35.5L21.1719 43.5L37.1719 30" stroke="#26850B" stroke-width="3" stroke-linecap="round" stroke-linejoin="round"/>
<path d="M8.248 2.26172L43.6065 2.26172C44.4588 2.26172 45.2763 2.61285 45.879 3.23787C46.4817 3.86289 46.8203 4.71061 46.8203 5.59452L46.8203 58.9289C46.8203 59.8128 46.4817 60.6605 45.879 61.2856C45.2763 61.9106 44.4588 62.2617 43.6065 62.2617L5.03416 62.2617C4.18179 62.2617 3.36434 61.9106 2.76163 61.2856C2.15891 60.6605 1.82031 59.8128 1.82031 58.9289L1.82031 8.92892M8.248 2.26172L1.82031 8.92892M8.248 2.26172L8.248 8.92892L1.82031 8.92892" stroke="#26850B" stroke-width="3" stroke-linecap="round" stroke-linejoin="round"/>
</svg>
