<svg width="54" height="54" viewBox="0 0 54 54" fill="none" xmlns="http://www.w3.org/2000/svg">
<path d="M26.9913 32.0255L11.5959 50.0993C11.1063 50.6691 10.5042 51.1318 9.82751 51.4582C9.15077 51.7846 8.41392 51.9677 7.66312 51.9961C6.91232 52.0245 6.16374 51.8975 5.46429 51.6232C4.76483 51.3488 4.12957 50.933 3.59829 50.4017C3.06701 49.8704 2.65117 49.2352 2.37682 48.5357C2.10246 47.8363 1.9755 47.0877 2.0039 46.3369C2.03229 45.5861 2.21542 44.8492 2.54182 44.1725C2.86822 43.4958 3.33086 42.8937 3.90074 42.4041L21.9745 27.0087M52 26.7711L36.7572 42.0139M27.2289 2L11.9861 17.2428M25.3232 3.90566L13.8917 15.3371C13.8917 15.3371 19.6087 22.9598 25.3232 28.6768C31.0402 34.3913 38.6629 40.1083 38.6629 40.1083L50.0943 28.6768C50.0943 28.6768 44.3773 21.0541 38.6629 15.3371C32.9459 9.62266 25.3232 3.90566 25.3232 3.90566Z" stroke="#767676" stroke-width="4" stroke-linecap="round" stroke-linejoin="round"/>
</svg>
