<svg width="55" height="54" viewBox="0 0 55 54" fill="none" xmlns="http://www.w3.org/2000/svg">
<path d="M27.4913 32.0255L12.0959 50.0993C11.6063 50.6691 11.0042 51.1318 10.3275 51.4582C9.65077 51.7846 8.91392 51.9677 8.16312 51.9961C7.41232 52.0245 6.66374 51.8975 5.96429 51.6232C5.26483 51.3488 4.62957 50.933 4.09829 50.4017C3.56701 49.8704 3.15117 49.2352 2.87682 48.5357C2.60246 47.8363 2.4755 47.0877 2.5039 46.3369C2.53229 45.5861 2.71542 44.8492 3.04182 44.1725C3.36822 43.4958 3.83086 42.8937 4.40074 42.4041L22.4745 27.0087M52.5 26.7711L37.2572 42.0139M27.7289 2L12.4861 17.2428M25.8232 3.90566L14.3917 15.3371C14.3917 15.3371 20.1087 22.9598 25.8232 28.6768C31.5402 34.3913 39.1629 40.1083 39.1629 40.1083L50.5943 28.6768C50.5943 28.6768 44.8773 21.0541 39.1629 15.3371C33.4459 9.62266 25.8232 3.90566 25.8232 3.90566Z" stroke="#26850B" stroke-width="4" stroke-linecap="round" stroke-linejoin="round"/>
</svg>
