<svg width="64" height="63" viewBox="0 0 64 63" fill="none" xmlns="http://www.w3.org/2000/svg">
<path d="M31.9897 37.43L13.8232 58.7571C13.2454 59.4296 12.535 59.9755 11.7365 60.3606C10.9379 60.7458 10.0684 60.9619 9.18248 60.9954C8.29654 61.0289 7.41322 60.8791 6.58786 60.5553C5.7625 60.2316 5.01289 59.7409 4.38598 59.114C3.75907 58.4871 3.26838 57.7375 2.94464 56.9121C2.6209 56.0868 2.4711 55.2035 2.5046 54.3175C2.5381 53.4316 2.7542 52.5621 3.13935 51.7635C3.5245 50.965 4.07041 50.2546 4.74288 49.6768L26.07 31.5103M61.5 31.2299L43.5135 49.2164M32.2701 2L14.2836 19.9865M30.0214 4.24868L16.5322 17.7378C16.5322 17.7378 23.2783 26.7326 30.0214 33.4786C36.7674 40.2217 45.7622 46.9678 45.7622 46.9678L59.2513 33.4786C59.2513 33.4786 52.5053 24.4839 45.7622 17.7378C39.0161 10.9947 30.0214 4.24868 30.0214 4.24868Z" stroke="#0F1E7A" stroke-width="4" stroke-linecap="round" stroke-linejoin="round"/>
</svg>
