<svg width="55" height="54" viewBox="0 0 55 54" fill="none" xmlns="http://www.w3.org/2000/svg">
<path d="M27.2413 32.0255L11.8459 50.0993C11.3563 50.6691 10.7542 51.1318 10.0775 51.4582C9.40077 51.7846 8.66392 51.9677 7.91312 51.9961C7.16232 52.0245 6.41374 51.8975 5.71429 51.6232C5.01483 51.3488 4.37957 50.933 3.84829 50.4017C3.31701 49.8704 2.90117 49.2352 2.62682 48.5357C2.35246 47.8363 2.2255 47.0877 2.2539 46.3369C2.28229 45.5861 2.46542 44.8492 2.79182 44.1725C3.11822 43.4958 3.58086 42.8937 4.15074 42.4041L22.2245 27.0087M52.25 26.7711L37.0072 42.0139M27.4789 2L12.2361 17.2428M25.5732 3.90566L14.1417 15.3371C14.1417 15.3371 19.8587 22.9598 25.5732 28.6768C31.2902 34.3913 38.9129 40.1083 38.9129 40.1083L50.3443 28.6768C50.3443 28.6768 44.6273 21.0541 38.9129 15.3371C33.1959 9.62266 25.5732 3.90566 25.5732 3.90566Z" stroke="#DE1216" stroke-width="4" stroke-linecap="round" stroke-linejoin="round"/>
</svg>
