<svg width="49" height="63" viewBox="0 0 49 63" fill="none" xmlns="http://www.w3.org/2000/svg">
<path d="M17.7109 26.5254L30.5427 39.0005M30.5427 26.5254L17.7109 39.0005" stroke="#DE1216" stroke-width="3" stroke-linecap="round" stroke-linejoin="round"/>
<path d="M8.15706 1.5752L43.445 1.5752C44.2957 1.5752 45.1115 1.92563 45.713 2.5494C46.3145 3.17318 46.6525 4.0192 46.6525 4.90135L46.6525 58.1294C46.6525 59.0115 46.3145 59.8576 45.713 60.4813C45.1115 61.1051 44.2957 61.4556 43.445 61.4556L4.94962 61.4556C4.09896 61.4556 3.28314 61.1051 2.68162 60.4813C2.08011 59.8576 1.74219 59.0115 1.74219 58.1294L1.74219 8.2291M8.15706 1.5752L1.74219 8.2291M8.15706 1.5752L8.15706 8.2291L1.74219 8.2291" stroke="#DE1216" stroke-width="3" stroke-linecap="round" stroke-linejoin="round"/>
</svg>
