<svg width="49" height="64" viewBox="0 0 49 64" fill="none" xmlns="http://www.w3.org/2000/svg">
<path d="M8.23628 1.59741L43.5947 1.59741C44.4471 1.59741 45.2646 1.94855 45.8673 2.57357C46.47 3.19859 46.8086 4.0463 46.8086 4.93021L46.8086 58.2646C46.8086 59.1485 46.47 59.9962 45.8673 60.6213C45.2646 61.2463 44.4471 61.5974 43.5947 61.5974L5.02244 61.5974C4.17007 61.5974 3.35262 61.2463 2.74991 60.6213C2.14719 59.9962 1.80859 59.1485 1.80859 58.2646L1.80859 8.26461M8.23628 1.59741L1.80859 8.26461M8.23628 1.59741L8.23628 8.26461L1.80859 8.26461" stroke="#0F1E7A" stroke-width="3" stroke-linecap="round" stroke-linejoin="round"/>
<path d="M16 40L21.6667 37.8889L33 25.2222L29.2222 21L17.8889 33.6667L16 40Z" stroke="#0F1E7A" stroke-width="3" stroke-linejoin="round"/>
<path d="M11 49H39.67" stroke="#0F1E7A" stroke-width="3" stroke-linejoin="round"/>
</svg>
