<svg width="55" height="63" viewBox="0 0 55 63" fill="none" xmlns="http://www.w3.org/2000/svg">
<path d="M8.84928 1.5L49.1901 1.5C50.1625 1.5 51.0952 1.85113 51.7828 2.47615C52.4705 3.10118 52.8568 3.94889 52.8568 4.8328L52.8568 58.1672C52.8568 59.0511 52.4705 59.8988 51.7828 60.5238C51.0952 61.1489 50.1625 61.5 49.1901 61.5L5.18257 61.5C4.2101 61.5 3.27746 61.1489 2.58982 60.5238C1.90218 59.8988 1.51587 59.0511 1.51587 58.1672L1.51587 8.1672M8.84928 1.5L1.51587 8.1672M8.84928 1.5L8.84928 8.1672L1.51587 8.1672" stroke="#0F1E7A" stroke-width="3" stroke-linecap="round" stroke-linejoin="round"/>
<rect x="10.9998" y="18" width="31" height="31" rx="15.5" stroke="#0F1E7A" stroke-width="2"/>
<path fill-rule="evenodd" clip-rule="evenodd" d="M32.2883 26.8866C31.7053 26.9911 30.9092 27.2551 29.7487 27.6428L20.825 30.6169C19.6933 30.9937 18.8724 31.2673 18.2743 31.5011C17.6528 31.7431 17.3806 31.9039 17.2665 32.0126C17.066 32.205 16.9065 32.436 16.7975 32.6917C16.6886 32.9474 16.6324 33.2224 16.6324 33.5003C16.6324 33.7782 16.6886 34.0533 16.7975 34.3089C16.9065 34.5646 17.066 34.7956 17.2665 34.9881C17.3806 35.0981 17.6528 35.2576 18.2743 35.4996C19.1351 35.8195 20.003 36.1202 20.8772 36.4016C21.2787 36.5349 21.5565 36.6271 21.8081 36.7604C22.4175 37.0833 22.9158 37.582 23.2381 38.1918C23.3728 38.4434 23.465 38.7212 23.5983 39.1227L23.6162 39.1763C23.9929 40.3066 24.2666 41.1288 24.5003 41.7256C24.7423 42.3471 24.9032 42.6193 25.0132 42.7334C25.2057 42.9337 25.4366 43.093 25.6921 43.2018C25.9476 43.3107 26.2225 43.3668 26.5003 43.3668C26.778 43.3668 27.0529 43.3107 27.3084 43.2018C27.5639 43.093 27.7949 42.9337 27.9873 42.7334C28.0973 42.6193 28.2568 42.3471 28.4988 41.7256C28.7326 41.1288 29.0076 40.3066 29.3829 39.1763L32.3584 30.2512C32.7448 29.0907 33.0088 28.2932 33.1119 27.7116C33.2164 27.1231 33.1133 26.9897 33.0611 26.9388C33.0102 26.8866 32.8768 26.7821 32.2883 26.8866ZM32.0477 25.5349C32.7489 25.4112 33.4846 25.4181 34.0346 25.9667C34.5832 26.5167 34.5901 27.2523 34.4663 27.9536C34.3426 28.6479 34.0456 29.5403 33.6826 30.6307L33.6619 30.6857L30.6878 39.6122L30.6809 39.6328C30.4 40.5042 30.0997 41.3693 29.7803 42.2274C29.5397 42.8407 29.2991 43.3549 28.9787 43.6877C28.6579 44.0217 28.273 44.2874 27.847 44.4689C27.4209 44.6504 26.9626 44.7439 26.4996 44.7439C26.0365 44.7439 25.5782 44.6504 25.1522 44.4689C24.7262 44.2874 24.3412 44.0217 24.0204 43.6877C23.7014 43.3536 23.4594 42.8407 23.2188 42.2274C22.9713 41.5936 22.6867 40.7383 22.3182 39.6328L22.3113 39.6122C22.1532 39.1378 22.0968 38.9756 22.0226 38.8367C21.8293 38.4706 21.5303 38.1712 21.1646 37.9773C21.0271 37.9044 20.8634 37.8481 20.3891 37.6886L20.3685 37.6831C19.4972 37.4017 18.6321 37.1014 17.7738 36.7824C17.1606 36.5418 16.6463 36.3012 16.3136 35.9808C15.9796 35.66 15.7139 35.2751 15.5324 34.8491C15.3509 34.4231 15.2573 33.9648 15.2573 33.5017C15.2573 33.0386 15.3509 32.5803 15.5324 32.1543C15.7139 31.7283 15.9796 31.3433 16.3136 31.0226C16.6477 30.7022 17.1606 30.4616 17.7738 30.2209C18.4077 29.9734 19.263 29.6888 20.3685 29.3203L20.3891 29.3134L29.3142 26.3393L29.3706 26.3201C30.4609 25.9571 31.3533 25.6601 32.0477 25.5363" fill="#0F1E7A"/>
</svg>
